<svg id="Layer_1" data-name="Layer 1" xmlns="http://www.w3.org/2000/svg" viewBox="0 0 232.68 115.32"><defs><style>.cls-1{fill:#fff;}.cls-2{fill:#bc2238;}</style></defs><path class="cls-1" d="M23.61,95.51a7.44,7.44,0,0,0-6.72,3.35c-.11-.2-.22-.38-.34-.57a5.46,5.46,0,0,0-1.42-1.46,6.86,6.86,0,0,0-2.11-1,10.84,10.84,0,0,0-2.92-.34,9.41,9.41,0,0,0-4.17.95A7.46,7.46,0,0,0,3.86,98V96.05H1.12v18.72H3.86v-11a6.38,6.38,0,0,1,.43-2.45,4.88,4.88,0,0,1,3.09-2.86A7.18,7.18,0,0,1,9.82,98c1.87,0,3.2.39,4,1.17a4.46,4.46,0,0,1,1.16,3.29v12.27h2.73V103.39a5.12,5.12,0,0,1,1.49-3.94A6.32,6.32,0,0,1,23.64,98a6.47,6.47,0,0,1,2.41.39,4.15,4.15,0,0,1,1.56,1,4,4,0,0,1,.86,1.49,6.07,6.07,0,0,1,.28,1.86v12h2.74V102.29a6.52,6.52,0,0,0-1.93-5C28.27,96.09,26.32,95.51,23.61,95.51Z"/><path class="cls-1" d="M51.42,106.89a6.38,6.38,0,0,1-.39,2.2A5.11,5.11,0,0,1,49.82,111a6.1,6.1,0,0,1-2.12,1.33,8.61,8.61,0,0,1-3.14.51,9.68,9.68,0,0,1-3-.4,4.19,4.19,0,0,1-1.75-1.06,3.82,3.82,0,0,1-.9-1.64,9,9,0,0,1-.27-2.29V96.05H35.89v11.42c0,.37,0,.81,0,1.31a7.47,7.47,0,0,0,.28,1.67A6.8,6.8,0,0,0,37,112.2a5.78,5.78,0,0,0,1.54,1.59A8.12,8.12,0,0,0,41,114.9a12.87,12.87,0,0,0,3.55.41,10.51,10.51,0,0,0,2.84-.36,9,9,0,0,0,2.25-1,8.09,8.09,0,0,0,1.69-1.39l.12-.14v2.32h2.74V96.05H51.42Z"/><polygon class="cls-1" points="60.6 96.06 57.93 96.06 57.93 114.77 73.22 114.77 73.22 112.24 60.6 112.24 60.6 96.06"/><polygon class="cls-1" points="73.7 98.58 81.32 98.58 81.32 114.77 83.98 114.77 83.98 98.58 91.56 98.58 91.56 96.06 73.7 96.06 73.7 98.58"/><rect class="cls-1" x="94.17" y="96.06" width="2.74" height="18.71"/><rect class="cls-1" x="102.09" y="103.56" width="9.97" height="2.73"/><path class="cls-1" d="M132.29,105.62a6.54,6.54,0,0,0-1.92-1,14,14,0,0,0-2.35-.52l-5.59-.76a5.2,5.2,0,0,1-2.3-.77,1.83,1.83,0,0,1-.73-1.64,2.57,2.57,0,0,1,.24-1.08,2.19,2.19,0,0,1,.77-.88,5.2,5.2,0,0,1,1.58-.68,10.13,10.13,0,0,1,2.56-.27,8.35,8.35,0,0,1,4.62,1,3.51,3.51,0,0,1,1.45,2.82l0,.53h2.74l0-.61a8.11,8.11,0,0,0-.49-2.21,5.4,5.4,0,0,0-1.41-2.06A7.2,7.2,0,0,0,128.79,96a14,14,0,0,0-4.17-.52,11.83,11.83,0,0,0-3.86.53,6.77,6.77,0,0,0-2.46,1.37A4.49,4.49,0,0,0,117,99.25a5.38,5.38,0,0,0-.34,1.81,4.35,4.35,0,0,0,.54,2.28,4.65,4.65,0,0,0,1.35,1.47,6.6,6.6,0,0,0,1.75.85,11.25,11.25,0,0,0,1.8.4l6.17.82a4.89,4.89,0,0,1,2.27.82,2,2,0,0,1,.76,1.79,2.69,2.69,0,0,1-1.22,2.4,8.66,8.66,0,0,1-4.62.9,12.75,12.75,0,0,1-3.82-.45,5.39,5.39,0,0,1-2-1.06,2.61,2.61,0,0,1-.78-1.23,10.38,10.38,0,0,1-.26-1.41l0-.52h-2.72l0,.62a7,7,0,0,0,.85,3.05,6.06,6.06,0,0,0,2,2.07A8.94,8.94,0,0,0,121.6,115a16.87,16.87,0,0,0,3.46.33,26,26,0,0,0,2.64-.15,10.91,10.91,0,0,0,2.9-.72A6.39,6.39,0,0,0,133,112.7a4.8,4.8,0,0,0,1-3.21,5.22,5.22,0,0,0-.45-2.25A4.29,4.29,0,0,0,132.29,105.62Z"/><path class="cls-1" d="M153.43,97.1a5.41,5.41,0,0,0-2-.83,10,10,0,0,0-2-.22H137.27v18.72h2.67v-7.55h9.36a6.16,6.16,0,0,0,4.64-1.58,5.66,5.66,0,0,0,1.5-4,6.21,6.21,0,0,0-.56-2.79A4.76,4.76,0,0,0,153.43,97.1Zm-.92,6a2.45,2.45,0,0,1-.75.91,3,3,0,0,1-1.11.49,6.41,6.41,0,0,1-1.38.15h-9.33V98.58H149q.53,0,1.26.06a3,3,0,0,1,1.23.33,2.29,2.29,0,0,1,.91.87,3.42,3.42,0,0,1,.38,1.8A3.25,3.25,0,0,1,152.51,103.14Z"/><path class="cls-1" d="M176.46,98.51a10.08,10.08,0,0,0-3.29-2.19,12.35,12.35,0,0,0-8.85,0A10.08,10.08,0,0,0,161,98.51a9.4,9.4,0,0,0-2.06,3.15,10.28,10.28,0,0,0,0,7.51,9.18,9.18,0,0,0,2.06,3.18,9.93,9.93,0,0,0,3.29,2.17,12.61,12.61,0,0,0,8.84,0,9.87,9.87,0,0,0,3.3-2.17,9.33,9.33,0,0,0,2.06-3.18,10.21,10.21,0,0,0,.71-3.76,10.07,10.07,0,0,0-.71-3.74A9.24,9.24,0,0,0,176.46,98.51Zm0,6.9a8.07,8.07,0,0,1-.48,2.74,6.7,6.7,0,0,1-1.44,2.33,7.25,7.25,0,0,1-2.42,1.67,9.43,9.43,0,0,1-6.83,0,7.11,7.11,0,0,1-2.42-1.67,6.64,6.64,0,0,1-1.44-2.33,8.07,8.07,0,0,1-.48-2.74,7.82,7.82,0,0,1,.49-2.72,6.64,6.64,0,0,1,1.43-2.35,7.25,7.25,0,0,1,2.42-1.67,9.57,9.57,0,0,1,6.83,0,7.25,7.25,0,0,1,2.42,1.67,6.78,6.78,0,0,1,1.44,2.35A8,8,0,0,1,176.5,105.41Z"/><path class="cls-1" d="M192.86,95.88a4.38,4.38,0,0,0-.77-.06,10,10,0,0,0-4.74,1.07,6.11,6.11,0,0,0-2,1.74V96.05H182.6v18.72h2.73V104.69a7.09,7.09,0,0,1,.4-2.36,5.88,5.88,0,0,1,1.15-2,5.63,5.63,0,0,1,1.92-1.33,7.22,7.22,0,0,1,2.78-.5,9.66,9.66,0,0,1,1.07,0,4.09,4.09,0,0,1,.55.13L194,99V96.16l-.42-.12C193.28,96,193.05,95.91,192.86,95.88Z"/><polygon class="cls-1" points="195.43 98.58 203.04 98.58 203.04 114.77 205.7 114.77 205.7 98.58 213.28 98.58 213.28 96.06 195.43 96.06 195.43 98.58"/><path class="cls-1" d="M232.24,107.23a4.46,4.46,0,0,0-1.31-1.61,6.09,6.09,0,0,0-1.92-1,13.82,13.82,0,0,0-2.35-.52l-5.59-.76a5.2,5.2,0,0,1-2.3-.77,1.82,1.82,0,0,1-.72-1.64,2.6,2.6,0,0,1,.23-1.07,2.25,2.25,0,0,1,.78-.89,5,5,0,0,1,1.57-.68,10.13,10.13,0,0,1,2.56-.27,8.41,8.41,0,0,1,4.63,1,3.54,3.54,0,0,1,1.45,2.82l0,.53H232l0-.61a7.75,7.75,0,0,0-.48-2.2,5.31,5.31,0,0,0-1.42-2.06A7.13,7.13,0,0,0,227.43,96a14,14,0,0,0-4.17-.52,11.72,11.72,0,0,0-3.85.53,7.13,7.13,0,0,0-2.48,1.37,4.92,4.92,0,0,0-1.28,1.84,5.54,5.54,0,0,0-.34,1.81,4.5,4.5,0,0,0,.54,2.28,4.57,4.57,0,0,0,1.36,1.47,6.45,6.45,0,0,0,1.75.85,11.38,11.38,0,0,0,1.79.4l6.17.82a5,5,0,0,1,2.28.82,2.06,2.06,0,0,1,.75,1.79,2.69,2.69,0,0,1-1.22,2.4,8.64,8.64,0,0,1-4.61.9,12.78,12.78,0,0,1-3.83-.45,5.25,5.25,0,0,1-2-1.06,2.54,2.54,0,0,1-.78-1.23,9.14,9.14,0,0,1-.26-1.4l0-.53h-2.72l0,.62a6.85,6.85,0,0,0,.84,3.05,6.18,6.18,0,0,0,2,2.07,8.88,8.88,0,0,0,2.84,1.12,17,17,0,0,0,3.47.33,25.92,25.92,0,0,0,2.63-.15,10.82,10.82,0,0,0,2.9-.72,6.24,6.24,0,0,0,2.41-1.74,4.76,4.76,0,0,0,1-3.21A5.46,5.46,0,0,0,232.24,107.23Z"/><path class="cls-1" d="M10.15,78.18h7.3a7.42,7.42,0,0,1-.62,2,6.14,6.14,0,0,1-3.62,3.17,9.28,9.28,0,0,1-6-.16,6.85,6.85,0,0,1-3.92-4,7.74,7.74,0,0,1-.53-2.84,7,7,0,0,1,.58-2.79,7.23,7.23,0,0,1,1.58-2.33,7.84,7.84,0,0,1,2.45-1.61,8.8,8.8,0,0,1,5.46-.32,7.5,7.5,0,0,1,2,.85,5.17,5.17,0,0,1,1.54,1.37,4.74,4.74,0,0,1,.87,1.9l.1.46h2.73l-.15-.71a8.26,8.26,0,0,0-3.4-5.06,8.94,8.94,0,0,0-2.8-1.28,12.32,12.32,0,0,0-3.25-.42,10.82,10.82,0,0,0-4.56.91,10.2,10.2,0,0,0-3.28,2.35A10.1,10.1,0,0,0,0,76.4a10.32,10.32,0,0,0,.82,4.2,8.92,8.92,0,0,0,2.26,3.11,10.08,10.08,0,0,0,3.33,1.93,12.14,12.14,0,0,0,4,.67A11.51,11.51,0,0,0,12.88,86a10.38,10.38,0,0,0,2.33-.83,8.82,8.82,0,0,0,2-1.37,5.77,5.77,0,0,0,.44-.42v2.51h2.53V75.65h-10Z"/><path class="cls-1" d="M34.12,66.84a3.39,3.39,0,0,0-.76-.07,10,10,0,0,0-4.75,1.08,6.06,6.06,0,0,0-2,1.73V67H23.87V85.72H26.6V75.65a6.88,6.88,0,0,1,.4-2.36,5.48,5.48,0,0,1,1.15-2A5.31,5.31,0,0,1,30.07,70a7,7,0,0,1,2.77-.51,9.16,9.16,0,0,1,1.07,0,3.11,3.11,0,0,1,.56.13l.77.27V67.12L34.82,67A5.93,5.93,0,0,0,34.12,66.84Z"/><path class="cls-1" d="M55.86,83.43A7,7,0,0,1,55.75,82V72.19a5.65,5.65,0,0,0-.63-2.75,4.6,4.6,0,0,0-1.8-1.81,8.52,8.52,0,0,0-2.72-.9,20.7,20.7,0,0,0-3.49-.27,17.42,17.42,0,0,0-3.55.32,7,7,0,0,0-2.64,1.11A5.58,5.58,0,0,0,39.2,70a9.28,9.28,0,0,0-.83,3l-.08.65H41l.08-.5a7,7,0,0,1,.51-1.88,3.09,3.09,0,0,1,1-1.22,4.37,4.37,0,0,1,1.7-.74A12.43,12.43,0,0,1,47.07,69a14,14,0,0,1,3.07.28,5.26,5.26,0,0,1,1.8.72,2.3,2.3,0,0,1,.82,1A4.07,4.07,0,0,1,53,72.39a4,4,0,0,1-.13,1.1.79.79,0,0,1-.3.44,1.27,1.27,0,0,1-.6.26,7.7,7.7,0,0,1-1.1.12l-6.15.42a16.44,16.44,0,0,0-2.63.41,7.58,7.58,0,0,0-2.28.94,4.93,4.93,0,0,0-1.63,1.71,5,5,0,0,0-.61,2.55,5.87,5.87,0,0,0,.48,2.5A5.34,5.34,0,0,0,41,85.57a11.12,11.12,0,0,0,1.73.5,9.35,9.35,0,0,0,1.57.19h1.08a19.75,19.75,0,0,0,2.06-.12,10.2,10.2,0,0,0,2.46-.58,9.38,9.38,0,0,0,2.39-1.32,6.38,6.38,0,0,0,1-.9,4,4,0,0,0,.28,1.31,2.11,2.11,0,0,0,.86,1,2.84,2.84,0,0,0,1.56.37,6.55,6.55,0,0,0,2.11-.31l.39-.13V83.06l-.75.23C56.79,83.57,55.9,83.58,55.86,83.43Zm-5.3-.91a8.85,8.85,0,0,1-2.48.93,12.54,12.54,0,0,1-2.62.3,14.08,14.08,0,0,1-1.71-.12,5.43,5.43,0,0,1-1.69-.49,3.23,3.23,0,0,1-1.27-1,3,3,0,0,1-.48-1.78A2.63,2.63,0,0,1,40.62,79a2.41,2.41,0,0,1,.85-.89,4.45,4.45,0,0,1,1.42-.58,11.76,11.76,0,0,1,1.93-.28l5.92-.41a6.42,6.42,0,0,0,2-.38l.26-.11v2.21a4,4,0,0,1-.67,2.34A5.54,5.54,0,0,1,50.56,82.52Z"/><path class="cls-1" d="M78.61,71.33a6.48,6.48,0,0,0-.79-1.75A5.66,5.66,0,0,0,76.28,68a8.11,8.11,0,0,0-2.44-1.11,13,13,0,0,0-3.56-.41,10.43,10.43,0,0,0-2.85.36,8.65,8.65,0,0,0-2.23,1,7.47,7.47,0,0,0-1.69,1.39l-.12.14V67H60.65V85.72h2.74V74.89a6.42,6.42,0,0,1,.39-2.2A5.15,5.15,0,0,1,65,70.83,6,6,0,0,1,67.1,69.5,8.7,8.7,0,0,1,70.25,69a9.59,9.59,0,0,1,3,.4A4.1,4.1,0,0,1,75,70.46a3.78,3.78,0,0,1,.9,1.63,9.49,9.49,0,0,1,.26,2.29V85.72h2.74V74.31c0-.35,0-.79,0-1.3A7.86,7.86,0,0,0,78.61,71.33Z"/><path class="cls-1" d="M101.18,77.52A4.76,4.76,0,0,0,100,76.24a3.51,3.51,0,0,0-.59-.38,3.56,3.56,0,0,0,1.18-1.27,5.32,5.32,0,0,0,.66-2.57,4.72,4.72,0,0,0-1.5-3.73A6.34,6.34,0,0,0,95.52,67H83.35V85.72h12a8.09,8.09,0,0,0,3.21-.54,5.78,5.78,0,0,0,2-1.38,4.69,4.69,0,0,0,1-1.85,6.9,6.9,0,0,0,.26-1.71v0a7.48,7.48,0,0,0-.13-1.24A4.66,4.66,0,0,0,101.18,77.52Zm-3-3.91a2.61,2.61,0,0,1-1,.82,3.77,3.77,0,0,1-1.23.31c-.45,0-.77.05-1,.05H86V69.54h8.81c.47,0,1,0,1.44,0a3.22,3.22,0,0,1,1.2.31,1.84,1.84,0,0,1,.82.72,2.65,2.65,0,0,1,.32,1.44A2.47,2.47,0,0,1,98.2,73.61ZM86,77.32H94.8c.47,0,1,0,1.56.05a4,4,0,0,1,1.41.33,2.54,2.54,0,0,1,1,.82,2.76,2.76,0,0,1,.39,1.62l0,.36a2.36,2.36,0,0,1-.47,1.38,3.22,3.22,0,0,1-1.19.92,4.26,4.26,0,0,1-1.37.35l-1,0H86Z"/><polygon class="cls-1" points="119.24 67.01 112.53 75.43 105.95 67.01 102.41 67.01 111.19 78.01 111.19 85.72 113.86 85.72 113.86 78.01 122.64 67.01 119.24 67.01"/><path class="cls-2" d="M195.59,36.41A36.41,36.41,0,0,0,159.18,0l-1.9,2a35.36,35.36,0,0,1,32.95,22.54,35.86,35.86,0,0,0-4.14-6.38C173.1,2.1,149,0,132.24,13.57a39.14,39.14,0,0,0-14,38.72l6.38-6.82c-.46-10.47,4.29-19.83,13.36-27,12.69-10.07,34.27-8.7,45.71,5.46a31.85,31.85,0,0,1,6.89,16.61,29.21,29.21,0,0,0-6-13.21c-10.54-13-30.09-14.71-43.67-3.74A31.72,31.72,0,0,0,129.58,55l5.26-5.53c-.37-8.49,3.44-16,10.74-21.92,12-9.66,27.79-7.06,37.07,4.43a25.85,25.85,0,0,1,5.66,14.2,24.89,24.89,0,1,0-48.53,11l5-4.07c-.43-6.85,1.58-13.18,7.33-17.82,9.41-7.61,22.11-5.26,29.72,4.16a21.87,21.87,0,0,1,3.41,21.63,28.66,28.66,0,0,1-7.49,9.17,30.89,30.89,0,0,1-6.44,4,22,22,0,0,1-17-1l-1,.62a25,25,0,0,0,12.54,2.32,26.94,26.94,0,0,1-18.46-1.65l-1.3.79a31.33,31.33,0,0,0,23.81.69c-9.65,4.51-20.78,4.82-29.67.41l-1.6,1a39.14,39.14,0,0,0,40.65-5.59,40,40,0,0,0,12.94-18.68,50.2,50.2,0,0,0,3.36-16.72"/></svg>